[ConversionWorker] Logging FFmpeg output to: ffmpeg_logs\ffmpeg_conversion_t_wav_20250525_151627.log\n[ConversionWorker] Getting duration with command: ffprobe -v error -show_entries format=duration -of default=noprint_wrappers=1:nokey=1 Z:\AAAAA01\t.wav\n[ConversionWorker] Duration for t.wav: 11418446 ms\n[ConversionWorker] Starting FFmpeg for t.wav: ffmpeg -i Z:\AAAAA01\t.wav -b:a 256k -vn -y -loglevel error -stats -progress pipe:1 Z:\AAAAA01\t.mp3\n[ConversionWorker] FFmpeg process started. PID: 28556\n[STDOUT RAW] bitrate= 154.1kbits/s\n[STDOUT RAW] total_size=88364\n[STDOUT RAW] out_time_us=4585958\n[STDOUT RAW] out_time_ms=4585958\n[STDOUT RAW] out_time=00:00:04.585958\n[STDOUT RAW] dup_frames=0\n[STDOUT RAW] drop_frames=0\n[STDOUT RAW] speed=8.85x\n[STDOUT RAW] progress=continue\n[STDERR RAW] size=      86KiB time=00:00:04.58 bitrate= 154.1kbits/s speed=8.85x\n[STDOUT RAW] bitrate= 157.1kbits/s\n[STDOUT RAW] total_size=180044\n[STDOUT RAW] out_time_us=9169958\n[STDOUT RAW] out_time_ms=9169958\n[STDOUT RAW] out_time=00:00:09.169958\n[STDOUT RAW] dup_frames=0\n[STDOUT RAW] drop_frames=0\n[STDOUT RAW] speed=8.83x\n[STDOUT RAW] progress=continue\n[STDOUT RAW] bitrate= 123.6kbits/s\n[STDOUT RAW] total_size=262144\n[STDOUT RAW] out_time_us=16969958\n[STDOUT RAW] out_time_ms=16969958\n[STDOUT RAW] out_time=00:00:16.969958\n[STDOUT RAW] dup_frames=0\n[STDOUT RAW] drop_frames=0\n[STDOUT RAW] speed=  11x\n[STDOUT RAW] progress=continue\n[STDERR RAW] size=     176KiB time=00:00:09.16 bitrate= 157.1kbits/s speed=8.83x\n[STDERR RAW] size=     256KiB time=00:00:16.96 bitrate= 123.6kbits/s speed=  11x\n[STDOUT RAW] bitrate= 144.5kbits/s\n[STDOUT RAW] total_size=2359296\n[STDOUT RAW] out_time_us=130633958\n[STDOUT RAW] out_time_ms=130633958\n[STDOUT RAW] out_time=00:02:10.633958\n[STDOUT RAW] dup_frames=0\n[STDOUT RAW] drop_frames=0\n[STDOUT RAW] speed=63.1x\n[STDOUT RAW] progress=continue\n[STDERR RAW] size=    2304KiB time=00:02:10.63 bitrate= 144.5kbits/s speed=63.1x\n[STDOUT RAW] bitrate= 157.2kbits/s\n[STDOUT RAW] total_size=4980736\n[STDOUT RAW] out_time_us=253513958\n[STDOUT RAW] out_time_ms=253513958\n[STDOUT RAW] out_time=00:04:13.513958\n[STDOUT RAW] dup_frames=0\n[STDOUT RAW] drop_frames=0\n[STDOUT RAW] speed=98.2x\n[STDOUT RAW] progress=continue\n[STDERR RAW] size=    4864KiB time=00:04:13.51 bitrate= 157.2kbits/s speed=98.2x\n[STDOUT RAW] bitrate= 155.7kbits/s\n[STDOUT RAW] total_size=7340032\n[STDOUT RAW] out_time_us=377209958\n[STDOUT RAW] out_time_ms=377209958\n[STDOUT RAW] out_time=00:06:17.209958\n[STDOUT RAW] dup_frames=0\n[STDOUT RAW] drop_frames=0\n[STDOUT RAW] speed= 122x\n[STDOUT RAW] progress=continue\n[STDERR RAW] size=    7168KiB time=00:06:17.20 bitrate= 155.7kbits/s speed= 122x\n[STDOUT RAW] bitrate= 159.0kbits/s\n[STDOUT RAW] total_size=9961472\n[STDOUT RAW] out_time_us=501313958\n[STDOUT RAW] out_time_ms=501313958\n[STDOUT RAW] out_time=00:08:21.313958\n[STDOUT RAW] dup_frames=0\n[STDOUT RAW] drop_frames=0\n[STDOUT RAW] speed= 139x\n[STDOUT RAW] progress=continue\n[ConversionWorker] Cancel method called.\n[ConversionWorker] Cancellation requested during processing. Terminating FFmpeg.\n[ConversionWorker] Waiting for reader threads to join...\n[STDERR RAW] size=    9728KiB time=00:08:21.31 bitrate= 159.0kbits/s speed= 139x\n[ConversionWorker] Process poll is None after loop, waiting for process to terminate...\n[ConversionWorker] FFmpeg process ended. Return code: 1\n[ConversionWorker] Closing FFmpeg log file.\n